<svg width="109" height="71" viewBox="0 0 109 71" fill="none" xmlns="http://www.w3.org/2000/svg">
<path d="M10.0421 18.2211C22.8428 73.8564 25.7483 47.3291 39.4707 29.4243C47.5612 18.868 59.4116 11.3089 79.2669 25.3526" stroke="white" stroke-width="2"/>
<path d="M63.608 10.3856C63.608 54.8266 17.9734 59.8612 17.9734 21.6697" stroke="white" stroke-width="2"/>
<path d="M65.7564 49.4236V53.3611H64.7507V46.8157H65.7223V47.8384H65.8075C65.9609 47.506 66.1939 47.239 66.5064 47.0373C66.8189 46.8327 67.2223 46.7304 67.7166 46.7304C68.1598 46.7304 68.5476 46.8213 68.88 47.0032C69.2124 47.1821 69.4709 47.4549 69.6555 47.8213C69.8402 48.185 69.9325 48.6452 69.9325 49.202V53.3611H68.9269V49.2702C68.9269 48.756 68.7933 48.3554 68.5263 48.0685C68.2592 47.7787 67.8928 47.6338 67.4269 47.6338C67.1058 47.6338 66.8189 47.7034 66.5661 47.8427C66.3161 47.9819 66.1186 48.185 65.9737 48.452C65.8288 48.7191 65.7564 49.0429 65.7564 49.4236ZM74.4293 53.4975C73.8384 53.4975 73.32 53.3569 72.8739 53.0756C72.4308 52.7944 72.0842 52.4009 71.8342 51.8952C71.587 51.3895 71.4634 50.7986 71.4634 50.1225C71.4634 49.4407 71.587 48.8455 71.8342 48.337C72.0842 47.8284 72.4308 47.4336 72.8739 47.1523C73.32 46.8711 73.8384 46.7304 74.4293 46.7304C75.0202 46.7304 75.5373 46.8711 75.9805 47.1523C76.4265 47.4336 76.7731 47.8284 77.0202 48.337C77.2702 48.8455 77.3952 49.4407 77.3952 50.1225C77.3952 50.7986 77.2702 51.3895 77.0202 51.8952C76.7731 52.4009 76.4265 52.7944 75.9805 53.0756C75.5373 53.3569 75.0202 53.4975 74.4293 53.4975ZM74.4293 52.5941C74.8782 52.5941 75.2475 52.479 75.5373 52.2489C75.8271 52.0188 76.0416 51.7162 76.1808 51.3412C76.32 50.9662 76.3896 50.56 76.3896 50.1225C76.3896 49.685 76.32 49.2773 76.1808 48.8995C76.0416 48.5216 75.8271 48.2162 75.5373 47.9833C75.2475 47.7503 74.8782 47.6338 74.4293 47.6338C73.9805 47.6338 73.6112 47.7503 73.3214 47.9833C73.0316 48.2162 72.8171 48.5216 72.6779 48.8995C72.5387 49.2773 72.4691 49.685 72.4691 50.1225C72.4691 50.56 72.5387 50.9662 72.6779 51.3412C72.8171 51.7162 73.0316 52.0188 73.3214 52.2489C73.6112 52.479 73.9805 52.5941 74.4293 52.5941ZM81.402 53.4975C80.8565 53.4975 80.375 53.3597 79.9574 53.0841C79.5398 52.8057 79.2131 52.4137 78.9773 51.908C78.7415 51.3995 78.6236 50.7986 78.6236 50.1054C78.6236 49.4179 78.7415 48.8213 78.9773 48.3157C79.2131 47.81 79.5412 47.4194 79.9617 47.1438C80.3821 46.8682 80.8679 46.7304 81.419 46.7304C81.8452 46.7304 82.1818 46.8015 82.429 46.9435C82.679 47.0827 82.8693 47.2418 83 47.4208C83.1335 47.5969 83.2372 47.7418 83.3111 47.8554H83.3963V44.6338H84.402V53.3611H83.4304V52.3554H83.3111C83.2372 52.4748 83.1321 52.6253 82.9957 52.8071C82.8594 52.9861 82.6648 53.1466 82.4119 53.2887C82.1591 53.4279 81.8224 53.4975 81.402 53.4975ZM81.5384 52.5941C81.9418 52.5941 82.2827 52.489 82.5611 52.2787C82.8395 52.0657 83.0511 51.7716 83.196 51.3966C83.3409 51.0188 83.4134 50.5827 83.4134 50.0884C83.4134 49.5998 83.3423 49.1722 83.2003 48.8057C83.0582 48.4364 82.848 48.1495 82.5696 47.9449C82.2912 47.7375 81.9474 47.6338 81.5384 47.6338C81.1122 47.6338 80.7571 47.7432 80.473 47.962C80.1918 48.1779 79.9801 48.4719 79.8381 48.8441C79.6989 49.2134 79.6293 49.6282 79.6293 50.0884C79.6293 50.5543 79.7003 50.9776 79.8423 51.3583C79.9872 51.7361 80.2003 52.0373 80.4815 52.2617C80.7656 52.4833 81.1179 52.5941 81.5384 52.5941ZM89.1278 53.4975C88.4972 53.4975 87.9531 53.3583 87.4957 53.0799C87.0412 52.7986 86.6903 52.4066 86.4432 51.9037C86.1989 51.3981 86.0767 50.81 86.0767 50.1395C86.0767 49.4691 86.1989 48.8782 86.4432 48.3668C86.6903 47.8526 87.0341 47.452 87.4744 47.1651C87.9176 46.8753 88.4347 46.7304 89.0256 46.7304C89.3665 46.7304 89.7031 46.7873 90.0355 46.9009C90.3679 47.0145 90.6705 47.1992 90.9432 47.4549C91.2159 47.7077 91.4332 48.0429 91.5952 48.4606C91.7571 48.8782 91.8381 49.3924 91.8381 50.0032V50.4293H86.7926V49.56H90.8153C90.8153 49.1907 90.7415 48.8611 90.5938 48.5713C90.4489 48.2816 90.2415 48.0529 89.9716 47.8853C89.7046 47.7177 89.3892 47.6338 89.0256 47.6338C88.625 47.6338 88.2784 47.7333 87.9858 47.9321C87.696 48.1282 87.473 48.3838 87.3168 48.6992C87.1605 49.0145 87.0824 49.3526 87.0824 49.7134V50.2929C87.0824 50.7873 87.1676 51.2063 87.3381 51.55C87.5114 51.8909 87.7514 52.1509 88.0582 52.3299C88.3651 52.506 88.7216 52.5941 89.1278 52.5941C89.3921 52.5941 89.6307 52.5571 89.8438 52.4833C90.0597 52.4066 90.2457 52.2929 90.402 52.1424C90.5582 51.989 90.679 51.7986 90.7642 51.5713L91.7358 51.8441C91.6335 52.1736 91.4617 52.4634 91.2202 52.7134C90.9787 52.9606 90.6804 53.1537 90.3253 53.2929C89.9702 53.4293 89.571 53.4975 89.1278 53.4975ZM64.8871 68.3611V59.6338H65.8928V62.8554H65.978C66.0519 62.7418 66.1541 62.5969 66.2848 62.4208C66.4183 62.2418 66.6087 62.0827 66.8558 61.9435C67.1058 61.8015 67.4439 61.7304 67.87 61.7304C68.4212 61.7304 68.907 61.8682 69.3274 62.1438C69.7479 62.4194 70.076 62.81 70.3118 63.3157C70.5476 63.8213 70.6655 64.4179 70.6655 65.1054C70.6655 65.7986 70.5476 66.3995 70.3118 66.908C70.076 67.4137 69.7493 67.8057 69.3317 68.0841C68.9141 68.3597 68.4325 68.4975 67.8871 68.4975C67.4666 68.4975 67.13 68.4279 66.8771 68.2887C66.6243 68.1466 66.4297 67.9861 66.2933 67.8071C66.157 67.6253 66.0519 67.4748 65.978 67.3554H65.8587V68.3611H64.8871ZM65.8757 65.0884C65.8757 65.5827 65.9482 66.0188 66.093 66.3966C66.2379 66.7716 66.4496 67.0657 66.728 67.2787C67.0064 67.489 67.3473 67.5941 67.7507 67.5941C68.1712 67.5941 68.522 67.4833 68.8033 67.2617C69.0874 67.0373 69.3004 66.7361 69.4425 66.3583C69.5874 65.9776 69.6598 65.5543 69.6598 65.0884C69.6598 64.6282 69.5888 64.2134 69.4467 63.8441C69.3075 63.4719 69.0959 63.1779 68.8118 62.962C68.5305 62.7432 68.1769 62.6338 67.7507 62.6338C67.3416 62.6338 66.9979 62.7375 66.7195 62.9449C66.4411 63.1495 66.2308 63.4364 66.0888 63.8057C65.9467 64.1722 65.8757 64.5998 65.8757 65.0884ZM74.8629 68.4975C74.272 68.4975 73.7536 68.3569 73.3075 68.0756C72.8644 67.7944 72.5178 67.4009 72.2678 66.8952C72.0206 66.3895 71.897 65.7986 71.897 65.1225C71.897 64.4407 72.0206 63.8455 72.2678 63.337C72.5178 62.8284 72.8644 62.4336 73.3075 62.1523C73.7536 61.8711 74.272 61.7304 74.8629 61.7304C75.4538 61.7304 75.9709 61.8711 76.4141 62.1523C76.8601 62.4336 77.2067 62.8284 77.4538 63.337C77.7038 63.8455 77.8288 64.4407 77.8288 65.1225C77.8288 65.7986 77.7038 66.3895 77.4538 66.8952C77.2067 67.4009 76.8601 67.7944 76.4141 68.0756C75.9709 68.3569 75.4538 68.4975 74.8629 68.4975ZM74.8629 67.5941C75.3118 67.5941 75.6811 67.479 75.9709 67.2489C76.2607 67.0188 76.4751 66.7162 76.6144 66.3412C76.7536 65.9662 76.8232 65.56 76.8232 65.1225C76.8232 64.685 76.7536 64.2773 76.6144 63.8995C76.4751 63.5216 76.2607 63.2162 75.9709 62.9833C75.6811 62.7503 75.3118 62.6338 74.8629 62.6338C74.4141 62.6338 74.0447 62.7503 73.755 62.9833C73.4652 63.2162 73.2507 63.5216 73.1115 63.8995C72.9723 64.2773 72.9027 64.685 72.9027 65.1225C72.9027 65.56 72.9723 65.9662 73.1115 66.3412C73.2507 66.7162 73.4652 67.0188 73.755 67.2489C74.0447 67.479 74.4141 67.5941 74.8629 67.5941ZM83.489 65.685V61.8157H84.4947V68.3611H83.489V67.2532H83.4208C83.2674 67.5856 83.0288 67.8682 82.7049 68.1012C82.381 68.3313 81.972 68.4463 81.4776 68.4463C81.0685 68.4463 80.7049 68.3569 80.3867 68.1779C80.0685 67.9961 79.8185 67.7233 79.6367 67.3597C79.4549 66.9932 79.364 66.5316 79.364 65.9748V61.8157H80.3697V65.9066C80.3697 66.3838 80.5032 66.7645 80.7702 67.0486C81.0401 67.3327 81.3839 67.4748 81.8015 67.4748C82.0515 67.4748 82.3058 67.4108 82.5643 67.283C82.8256 67.1552 83.0444 66.9591 83.2205 66.6949C83.3995 66.4307 83.489 66.0941 83.489 65.685ZM87.3423 64.4236V68.3611H86.3367V61.8157H87.3082V62.8384H87.3935C87.5469 62.506 87.7798 62.239 88.0923 62.0373C88.4048 61.8327 88.8082 61.7304 89.3026 61.7304C89.7457 61.7304 90.1335 61.8213 90.4659 62.0032C90.7983 62.1821 91.0568 62.4549 91.2415 62.8213C91.4261 63.185 91.5185 63.6452 91.5185 64.202V68.3611H90.5128V64.2702C90.5128 63.756 90.3793 63.3554 90.1122 63.0685C89.8452 62.7787 89.4787 62.6338 89.0128 62.6338C88.6918 62.6338 88.4048 62.7034 88.152 62.8427C87.902 62.9819 87.7046 63.185 87.5597 63.452C87.4148 63.7191 87.3423 64.0429 87.3423 64.4236ZM96.2028 61.8157V62.6679H92.8107V61.8157H96.2028ZM93.7994 60.2475H94.805V66.4861C94.805 66.7702 94.8462 66.9833 94.9286 67.1253C95.0139 67.2645 95.1218 67.3583 95.2525 67.4066C95.386 67.452 95.5266 67.4748 95.6744 67.4748C95.7852 67.4748 95.8761 67.4691 95.9471 67.4577C96.0181 67.4435 96.0749 67.4321 96.1175 67.4236L96.3221 68.327C96.2539 68.3526 96.1587 68.3782 96.0366 68.4037C95.9144 68.4321 95.7596 68.4463 95.5721 68.4463C95.288 68.4463 95.0096 68.3853 94.7369 68.2631C94.467 68.1409 94.2425 67.9549 94.0636 67.7049C93.8874 67.4549 93.7994 67.1395 93.7994 66.7588V60.2475ZM98.3633 70.8157C98.1928 70.8157 98.0408 70.8015 97.9073 70.7731C97.7738 70.7475 97.6815 70.7219 97.6303 70.6963L97.886 69.81C98.1303 69.8725 98.3462 69.8952 98.5337 69.8782C98.7212 69.8611 98.8874 69.7773 99.0323 69.6267C99.18 69.479 99.315 69.239 99.4372 68.9066L99.6247 68.3952L97.2042 61.8157H98.2951L100.102 67.0316H100.17L101.977 61.8157H103.068L100.289 69.3157C100.164 69.6537 100.01 69.9336 99.8249 70.1552C99.6403 70.3796 99.4258 70.5458 99.1815 70.6537C98.94 70.7617 98.6673 70.8157 98.3633 70.8157Z" fill="white"/>
<path d="M13.2305 18.2132C13.2305 19.6098 11.8543 20.7419 10.1567 20.7419C8.45908 20.7419 7.08289 19.6098 7.08289 18.2132C7.08289 16.8166 8.45908 15.6844 10.1567 15.6844C11.8543 15.6844 13.2305 16.8166 13.2305 18.2132Z" fill="#078A83"/>
<path d="M21.2697 20.9366C21.2697 22.3332 19.8935 23.4653 18.1959 23.4653C16.4983 23.4653 15.1221 22.3332 15.1221 20.9366C15.1221 19.54 16.4983 18.4078 18.1959 18.4078C19.8935 18.4078 21.2697 19.54 21.2697 20.9366Z" fill="#FF7A00"/>
</svg>
