<svg width="107" height="73" viewBox="0 0 107 73" fill="none" xmlns="http://www.w3.org/2000/svg">
<path d="M11.3293 18.7437C23.7952 77.6285 26.6247 49.5519 39.9882 30.6013C47.867 19.4285 59.4075 11.4279 78.7434 26.2918" stroke="#1E1E1E" stroke-width="2"/>
<path d="M63.4941 10.4502C63.4941 57.4868 19.0531 62.8155 19.0531 22.3934" stroke="#1E1E1E" stroke-width="2"/>
<line x1="1" y1="70" x2="1" y2="2.05883" stroke="#1E1E1E" stroke-width="2"/>
<path d="M65.6367 51.2978V55.2353H64.631V48.6898H65.6026V49.7126H65.6878C65.8412 49.3802 66.0742 49.1131 66.3867 48.9114C66.6992 48.7069 67.1026 48.6046 67.5969 48.6046C68.0401 48.6046 68.4279 48.6955 68.7603 48.8773C69.0926 49.0563 69.3512 49.329 69.5358 49.6955C69.7205 50.0592 69.8128 50.5194 69.8128 51.0762V55.2353H68.8071V51.1444C68.8071 50.6302 68.6736 50.2296 68.4066 49.9427C68.1395 49.6529 67.773 49.508 67.3071 49.508C66.9861 49.508 66.6992 49.5776 66.4463 49.7168C66.1963 49.856 65.9989 50.0592 65.854 50.3262C65.7091 50.5932 65.6367 50.9171 65.6367 51.2978ZM74.3096 55.3717C73.7187 55.3717 73.2002 55.231 72.7542 54.9498C72.311 54.6685 71.9644 54.2751 71.7144 53.7694C71.4673 53.2637 71.3437 52.6728 71.3437 51.9967C71.3437 51.3148 71.4673 50.7197 71.7144 50.2111C71.9644 49.7026 72.311 49.3077 72.7542 49.0265C73.2002 48.7452 73.7187 48.6046 74.3096 48.6046C74.9005 48.6046 75.4176 48.7452 75.8608 49.0265C76.3068 49.3077 76.6534 49.7026 76.9005 50.2111C77.1505 50.7197 77.2755 51.3148 77.2755 51.9967C77.2755 52.6728 77.1505 53.2637 76.9005 53.7694C76.6534 54.2751 76.3068 54.6685 75.8608 54.9498C75.4176 55.231 74.9005 55.3717 74.3096 55.3717ZM74.3096 54.4682C74.7585 54.4682 75.1278 54.3532 75.4176 54.1231C75.7073 53.893 75.9218 53.5904 76.061 53.2154C76.2002 52.8404 76.2698 52.4342 76.2698 51.9967C76.2698 51.5592 76.2002 51.1515 76.061 50.7736C75.9218 50.3958 75.7073 50.0904 75.4176 49.8574C75.1278 49.6245 74.7585 49.508 74.3096 49.508C73.8608 49.508 73.4914 49.6245 73.2017 49.8574C72.9119 50.0904 72.6974 50.3958 72.5582 50.7736C72.419 51.1515 72.3494 51.5592 72.3494 51.9967C72.3494 52.4342 72.419 52.8404 72.5582 53.2154C72.6974 53.5904 72.9119 53.893 73.2017 54.1231C73.4914 54.3532 73.8608 54.4682 74.3096 54.4682ZM81.2823 55.3717C80.7368 55.3717 80.2553 55.2339 79.8377 54.9583C79.4201 54.6799 79.0934 54.2878 78.8576 53.7822C78.6218 53.2736 78.5039 52.6728 78.5039 51.9796C78.5039 51.2921 78.6218 50.6955 78.8576 50.1898C79.0934 49.6842 79.4215 49.2935 79.8419 49.018C80.2624 48.7424 80.7482 48.6046 81.2993 48.6046C81.7255 48.6046 82.0621 48.6756 82.3093 48.8177C82.5593 48.9569 82.7496 49.116 82.8803 49.2949C83.0138 49.4711 83.1175 49.616 83.1914 49.7296H83.2766V46.508H84.2823V55.2353H83.3107V54.2296H83.1914C83.1175 54.3489 83.0124 54.4995 82.876 54.6813C82.7397 54.8603 82.5451 55.0208 82.2922 55.1628C82.0394 55.3021 81.7027 55.3717 81.2823 55.3717ZM81.4186 54.4682C81.822 54.4682 82.163 54.3631 82.4414 54.1529C82.7198 53.9398 82.9314 53.6458 83.0763 53.2708C83.2212 52.893 83.2936 52.4569 83.2936 51.9626C83.2936 51.4739 83.2226 51.0464 83.0806 50.6799C82.9385 50.3106 82.7283 50.0236 82.4499 49.8191C82.1715 49.6117 81.8277 49.508 81.4186 49.508C80.9925 49.508 80.6374 49.6174 80.3533 49.8361C80.072 50.0521 79.8604 50.3461 79.7184 50.7182C79.5791 51.0876 79.5095 51.5023 79.5095 51.9626C79.5095 52.4285 79.5806 52.8518 79.7226 53.2324C79.8675 53.6103 80.0806 53.9114 80.3618 54.1359C80.6459 54.3574 80.9982 54.4682 81.4186 54.4682ZM89.0081 55.3717C88.3774 55.3717 87.8334 55.2324 87.376 54.954C86.9215 54.6728 86.5706 54.2807 86.3235 53.7779C86.0791 53.2722 85.957 52.6842 85.957 52.0137C85.957 51.3432 86.0791 50.7523 86.3235 50.241C86.5706 49.7268 86.9144 49.3262 87.3547 49.0393C87.7979 48.7495 88.3149 48.6046 88.9059 48.6046C89.2468 48.6046 89.5834 48.6614 89.9158 48.7751C90.2482 48.8887 90.5507 49.0734 90.8235 49.329C91.0962 49.5819 91.3135 49.9171 91.4755 50.3347C91.6374 50.7523 91.7184 51.2665 91.7184 51.8773V52.3035H86.6729V51.4342H90.6956C90.6956 51.0648 90.6218 50.7353 90.474 50.4455C90.3291 50.1557 90.1218 49.9271 89.8519 49.7594C89.5848 49.5918 89.2695 49.508 88.9059 49.508C88.5053 49.508 88.1587 49.6074 87.8661 49.8063C87.5763 50.0023 87.3533 50.258 87.197 50.5734C87.0408 50.8887 86.9627 51.2268 86.9627 51.5876V52.1671C86.9627 52.6614 87.0479 53.0805 87.2184 53.4242C87.3916 53.7651 87.6317 54.0251 87.9385 54.204C88.2453 54.3802 88.6019 54.4682 89.0081 54.4682C89.2723 54.4682 89.511 54.4313 89.724 54.3574C89.9399 54.2807 90.126 54.1671 90.2823 54.0165C90.4385 53.8631 90.5593 53.6728 90.6445 53.4455L91.6161 53.7182C91.5138 54.0478 91.3419 54.3376 91.1005 54.5876C90.859 54.8347 90.5607 55.0279 90.2056 55.1671C89.8505 55.3035 89.4513 55.3717 89.0081 55.3717ZM64.7674 70.2353V61.508H65.773V64.7296H65.8583C65.9321 64.616 66.0344 64.4711 66.1651 64.2949C66.2986 64.116 66.4889 63.9569 66.7361 63.8177C66.9861 63.6756 67.3242 63.6046 67.7503 63.6046C68.3015 63.6046 68.7872 63.7424 69.2077 64.018C69.6282 64.2935 69.9563 64.6842 70.1921 65.1898C70.4279 65.6955 70.5458 66.2921 70.5458 66.9796C70.5458 67.6728 70.4279 68.2736 70.1921 68.7822C69.9563 69.2878 69.6296 69.6799 69.212 69.9583C68.7943 70.2339 68.3128 70.3717 67.7674 70.3717C67.3469 70.3717 67.0103 70.3021 66.7574 70.1628C66.5046 70.0208 66.31 69.8603 66.1736 69.6813C66.0372 69.4995 65.9321 69.3489 65.8583 69.2296H65.7389V70.2353H64.7674ZM65.756 66.9626C65.756 67.4569 65.8284 67.893 65.9733 68.2708C66.1182 68.6458 66.3299 68.9398 66.6083 69.1529C66.8867 69.3631 67.2276 69.4682 67.631 69.4682C68.0515 69.4682 68.4023 69.3574 68.6836 69.1359C68.9676 68.9114 69.1807 68.6103 69.3228 68.2324C69.4676 67.8518 69.5401 67.4285 69.5401 66.9626C69.5401 66.5023 69.4691 66.0876 69.327 65.7182C69.1878 65.3461 68.9762 65.0521 68.6921 64.8361C68.4108 64.6174 68.0571 64.508 67.631 64.508C67.2219 64.508 66.8782 64.6117 66.5997 64.8191C66.3213 65.0236 66.1111 65.3106 65.9691 65.6799C65.827 66.0464 65.756 66.4739 65.756 66.9626ZM74.7432 70.3717C74.1523 70.3717 73.6338 70.231 73.1878 69.9498C72.7446 69.6685 72.398 69.2751 72.148 68.7694C71.9009 68.2637 71.7773 67.6728 71.7773 66.9967C71.7773 66.3148 71.9009 65.7197 72.148 65.2111C72.398 64.7026 72.7446 64.3077 73.1878 64.0265C73.6338 63.7452 74.1523 63.6046 74.7432 63.6046C75.3341 63.6046 75.8512 63.7452 76.2943 64.0265C76.7404 64.3077 77.087 64.7026 77.3341 65.2111C77.5841 65.7197 77.7091 66.3148 77.7091 66.9967C77.7091 67.6728 77.5841 68.2637 77.3341 68.7694C77.087 69.2751 76.7404 69.6685 76.2943 69.9498C75.8512 70.231 75.3341 70.3717 74.7432 70.3717ZM74.7432 69.4682C75.1921 69.4682 75.5614 69.3532 75.8512 69.1231C76.1409 68.893 76.3554 68.5904 76.4946 68.2154C76.6338 67.8404 76.7034 67.4342 76.7034 66.9967C76.7034 66.5592 76.6338 66.1515 76.4946 65.7736C76.3554 65.3958 76.1409 65.0904 75.8512 64.8574C75.5614 64.6245 75.1921 64.508 74.7432 64.508C74.2943 64.508 73.925 64.6245 73.6353 64.8574C73.3455 65.0904 73.131 65.3958 72.9918 65.7736C72.8526 66.1515 72.783 66.5592 72.783 66.9967C72.783 67.4342 72.8526 67.8404 72.9918 68.2154C73.131 68.5904 73.3455 68.893 73.6353 69.1231C73.925 69.3532 74.2943 69.4682 74.7432 69.4682ZM83.3693 67.5592V63.6898H84.375V70.2353H83.3693V69.1273H83.3011C83.1477 69.4597 82.909 69.7424 82.5852 69.9753C82.2613 70.2055 81.8522 70.3205 81.3579 70.3205C80.9488 70.3205 80.5852 70.231 80.267 70.0521C79.9488 69.8702 79.6988 69.5975 79.517 69.2339C79.3352 68.8674 79.2443 68.4057 79.2443 67.8489V63.6898H80.25V67.7807C80.25 68.258 80.3835 68.6387 80.6505 68.9228C80.9204 69.2069 81.2642 69.3489 81.6818 69.3489C81.9318 69.3489 82.186 69.285 82.4446 69.1572C82.7059 69.0293 82.9247 68.8333 83.1008 68.5691C83.2798 68.3049 83.3693 67.9682 83.3693 67.5592ZM87.2226 66.2978V70.2353H86.2169V63.6898H87.1885V64.7126H87.2738C87.4272 64.3802 87.6601 64.1131 87.9726 63.9114C88.2851 63.7069 88.6885 63.6046 89.1828 63.6046C89.626 63.6046 90.0138 63.6955 90.3462 63.8773C90.6786 64.0563 90.9371 64.329 91.1218 64.6955C91.3064 65.0592 91.3988 65.5194 91.3988 66.0762V70.2353H90.3931V66.1444C90.3931 65.6302 90.2595 65.2296 89.9925 64.9427C89.7255 64.6529 89.359 64.508 88.8931 64.508C88.572 64.508 88.2851 64.5776 88.0323 64.7168C87.7823 64.856 87.5848 65.0592 87.4399 65.3262C87.2951 65.5932 87.2226 65.9171 87.2226 66.2978ZM96.0831 63.6898V64.5421H92.691V63.6898H96.0831ZM93.6796 62.1217H94.6853V68.3603C94.6853 68.6444 94.7265 68.8574 94.8089 68.9995C94.8941 69.1387 95.0021 69.2324 95.1328 69.2807C95.2663 69.3262 95.4069 69.3489 95.5546 69.3489C95.6654 69.3489 95.7564 69.3432 95.8274 69.3319C95.8984 69.3177 95.9552 69.3063 95.9978 69.2978L96.2024 70.2012C96.1342 70.2268 96.039 70.2523 95.9169 70.2779C95.7947 70.3063 95.6399 70.3205 95.4524 70.3205C95.1683 70.3205 94.8899 70.2594 94.6171 70.1373C94.3473 70.0151 94.1228 69.829 93.9439 69.579C93.7677 69.329 93.6796 69.0137 93.6796 68.633V62.1217ZM98.2436 72.6898C98.0731 72.6898 97.9211 72.6756 97.7876 72.6472C97.6541 72.6217 97.5617 72.5961 97.5106 72.5705L97.7663 71.6842C98.0106 71.7467 98.2265 71.7694 98.414 71.7523C98.6015 71.7353 98.7677 71.6515 98.9126 71.5009C99.0603 71.3532 99.1953 71.1131 99.3174 70.7807L99.5049 70.2694L97.0845 63.6898H98.1754L99.9822 68.9057H100.05L101.857 63.6898H102.948L100.17 71.1898C100.045 71.5279 99.8899 71.8077 99.7052 72.0293C99.5206 72.2538 99.3061 72.4199 99.0617 72.5279C98.8203 72.6359 98.5475 72.6898 98.2436 72.6898Z" fill="#1E1E1E"/>
<path d="M14.4342 18.7353C14.4342 20.2135 13.094 21.4118 11.4408 21.4118C9.78757 21.4118 8.44737 20.2135 8.44737 18.7353C8.44737 17.2572 9.78757 16.0589 11.4408 16.0589C13.094 16.0589 14.4342 17.2572 14.4342 18.7353Z" fill="#078A83"/>
<path d="M22.2631 21.6176C22.2631 23.0958 20.9229 24.2941 19.2697 24.2941C17.6165 24.2941 16.2763 23.0958 16.2763 21.6176C16.2763 20.1394 17.6165 18.9411 19.2697 18.9411C20.9229 18.9411 22.2631 20.1394 22.2631 21.6176Z" fill="#FF7A00"/>
</svg>
